<?xml version="1.0" encoding="UTF-8" standalone="no"?>
<!-- Created with Inkscape (http://www.inkscape.org/) -->

<svg
   xmlns:dc="http://purl.org/dc/elements/1.1/"
   xmlns:cc="http://creativecommons.org/ns#"
   xmlns:rdf="http://www.w3.org/1999/02/22-rdf-syntax-ns#"
   xmlns:svg="http://www.w3.org/2000/svg"
   xmlns="http://www.w3.org/2000/svg"
   xmlns:xlink="http://www.w3.org/1999/xlink"
   xmlns:sodipodi="http://sodipodi.sourceforge.net/DTD/sodipodi-0.dtd"
   xmlns:inkscape="http://www.inkscape.org/namespaces/inkscape"
   width="68.854111mm"
   height="57.121666mm"
   viewBox="0 0 243.97126 202.39962"
   id="svg2"
   version="1.1"
   inkscape:version="0.91 r13725"
   sodipodi:docname="notebook_little.svg">
  <defs
     id="defs4" />
  <sodipodi:namedview
     id="base"
     pagecolor="#ffffff"
     bordercolor="#666666"
     borderopacity="1.0"
     inkscape:pageopacity="0.0"
     inkscape:pageshadow="2"
     inkscape:zoom="0.35"
     inkscape:cx="-256.1626"
     inkscape:cy="491.90044"
     inkscape:document-units="px"
     inkscape:current-layer="layer1"
     showgrid="false"
     fit-margin-top="0"
     fit-margin-left="0"
     fit-margin-right="0"
     fit-margin-bottom="0"
     inkscape:window-width="1440"
     inkscape:window-height="838"
     inkscape:window-x="-8"
     inkscape:window-y="-8"
     inkscape:window-maximized="1" />
  <metadata
     id="metadata7">
    <rdf:RDF>
      <cc:Work
         rdf:about="">
        <dc:format>image/svg+xml</dc:format>
        <dc:type
           rdf:resource="http://purl.org/dc/dcmitype/StillImage" />
        <dc:title></dc:title>
      </cc:Work>
    </rdf:RDF>
  </metadata>
  <g
     inkscape:label="Layer 1"
     inkscape:groupmode="layer"
     id="layer1"
     transform="translate(-1287.1698,-968.34217)">
    <path
       style="fill:#0d0d0d"
       d="m 137.57998,560.16189 c -3.17211,-2.51643 -5.76745,-6.75882 -5.76745,-9.42752 0,-7.39002 20.91211,-69.05529 25.40198,-74.90503 3.66398,-4.77361 13.52376,-5.14343 137.13029,-5.14343 l 133.18238,0 3.69693,6.61298 c 2.03332,3.63714 8.5009,21.54112 14.37251,39.78661 11.01838,34.23901 11.23734,41.54915 1.37291,45.83635 -2.29732,0.99845 -71.55204,1.81534 -153.89951,1.81534 -131.31063,0 -150.43177,-0.56263 -155.49004,-4.5753 z m 177.46036,-11.83015 c -0.86636,-2.55696 -1.57513,-8.50864 -1.57513,-13.22596 l 0,-8.57692 -19.4628,0 c -14.78387,0 -19.46281,0.97155 -19.46281,4.04126 0,2.2227 -0.72983,8.17438 -1.62189,13.22596 l -1.6219,9.1847 22.65983,0 c 19.59666,0 22.44691,-0.62847 21.0847,-4.64904 z m 78.16444,-35.76362 c -0.72159,-2.82888 -2.85163,-11.42576 -4.73341,-19.10416 l -3.42157,-13.96074 -93.99655,0 -93.99649,0 -4.07673,15.88263 c -2.24218,8.73545 -4.07666,17.33233 -4.07666,19.10417 0,2.28177 29.99031,3.22153 102.80663,3.22153 96.68092,0 102.72851,-0.30647 101.49478,-5.14343 z M 161.14987,464.81767 c -8.25968,-3.82795 -8.96367,-12.59431 -8.07374,-100.53215 0.60208,-59.49865 1.61007,-79.40182 4.16774,-82.29487 2.67765,-3.02877 30.69157,-3.81595 135.79998,-3.81595 128.09255,0 132.54688,0.18672 136.10975,5.70518 5.41767,8.39151 5.41887,168.29796 0,176.6922 -3.55051,5.50129 -8.30346,5.72627 -132.99571,6.2952 -71.8476,0.32783 -131.84475,-0.58301 -135.00929,-2.04961 z m 258.71188,-92.59169 0,-80.82532 -127.15685,0 -127.15691,0 0,80.82532 0,80.82532 127.15691,0 127.15685,0 0,-80.82532 z"
       id="path3369"
       inkscape:connector-curvature="0" />
    <path
       style="fill:#070707"
       d="m 1693.1317,1122.4789 c -8.9812,-1.1086 -26.3706,-6.7294 -34,-10.9899 -46.3189,-25.8655 -64.5598,-82.0588 -41.9884,-129.35046 25.6079,-53.65385 93.4975,-72.58331 143.1555,-39.91563 9.3847,6.17375 22.0991,18.8881 28.2728,28.27278 25,38.00231 20.5737,88.35431 -10.7064,121.79291 -11.2867,12.0654 -24.3562,20.3265 -40.7335,25.747 -15.4282,5.1064 -28.1887,6.395 -44,4.4433 z m 39,-11.2928 c 15.4112,-5.001 25.1727,-10.7626 36.3615,-21.462 11.7098,-11.1975 18.9294,-22.8791 24.1411,-39.0613 2.1729,-6.7467 2.8412,-11.0784 3.2401,-21 0.6938,-17.2578 0.5364,-17.6353 -4.1386,-9.9252 -14.1852,23.3941 -35.3386,44.3516 -55.1041,54.5937 -13.4367,6.9626 -20.9978,8.8367 -35.5,8.7989 -13.8668,-0.036 -20.4669,-1.6967 -29.9605,-7.5382 l -4.9506,-3.0461 -9.5532,3.5781 c -5.2542,1.9679 -11.7992,4.0965 -14.5444,4.7301 -2.7452,0.6337 -4.9913,1.4511 -4.9913,1.8164 0,1.1579 13.314,13.4886 18,16.6707 16.6498,11.3059 31.4479,15.4387 53.5,14.9414 13.0916,-0.2952 16.0815,-0.6892 23.5,-3.0965 z m -15.0639,-40.1107 c 24.5486,-5.9367 53.581,-31.17 71.033,-61.7379 l 5.1037,-8.9395 -1.6755,-5.1176 c -4.2301,-12.91962 -12.2901,-25.40337 -23.0358,-35.67898 -11.2264,-10.73532 -22.9735,-17.5692 -37.8974,-22.04681 -10.0249,-3.00777 -31.1852,-3.73049 -42.5537,-1.45339 -9.0289,1.80846 -20.5732,6.36384 -29.7289,11.73103 -7.3261,4.29463 -24.7174,21.68586 -29.012,29.01198 -10.1557,17.32437 -13.6655,31.38477 -12.9128,51.72897 0.5553,15.0104 2.1566,21.6891 8.4728,35.3396 3.2255,6.971 3.8677,7.75 6.3895,7.75 3.1796,0 17.452,-3.221 23.1924,-5.2341 l 3.8113,-1.3366 -3.1623,-3.9646 c -9.7419,-12.2139 -14.6996,-32.3902 -12.0811,-49.1671 4.4945,-28.79716 26.3693,-55.77778 51.4416,-63.44865 10.2558,-3.13775 22.1407,-2.3732 31.014,1.9951 20.822,10.25064 25.4763,36.13152 11.1158,61.81055 -9.5218,17.0265 -32.857,39.632 -52.2007,50.5681 -2.8875,1.6325 -5.25,3.3141 -5.25,3.7369 0,0.8 5.9599,3.2315 12,4.8957 5.5181,1.5203 18.7531,1.2944 25.9361,-0.4427 z m -41.1575,-13.3099 c 24.8555,-12.5866 49.5688,-37.102 57.3547,-56.8955 1.8004,-4.57678 2.2571,-7.78698 2.3059,-16.20723 0.053,-9.17972 -0.2445,-11.11549 -2.3674,-15.39491 -2.9315,-5.90928 -7.6578,-10.81008 -13.3483,-13.84115 -3.4774,-1.85219 -5.8171,-2.25087 -13.2445,-2.25677 -8.1558,-0.007 -9.6513,0.30309 -15.5921,3.22774 -11.4838,5.65346 -20.4339,15.35818 -27.9117,30.26509 -10.8455,21.62033 -12.4498,42.10643 -4.5814,58.50003 2.8628,5.9645 9.7607,15.5 11.2127,15.5 0.2478,0 3.0252,-1.3038 6.1721,-2.8973 z"
       id="path3338"
       inkscape:connector-curvature="0" />
    <image
       sodipodi:absref="D:\Exclusion\WebDezignMaster\wordpress-landing-page-notebooks\_clean_html_notebooks\img\notebook.png"
       xlink:href="notebook.png"
       width="251.42859"
       height="265.71432"
       preserveAspectRatio="none"
       id="image3386"
       x="1283.2412"
       y="936.16583" />
    <path
       style="fill:#0d0d0d"
       d="m 1291.5354,1167.5102 c -2.4011,-1.7773 -4.3656,-4.7738 -4.3656,-6.6587 0,-5.2196 15.8292,-48.7738 19.2278,-52.9055 2.7733,-3.3716 10.2366,-3.6328 103.7992,-3.6328 l 100.811,0 2.7983,4.6707 c 1.5391,2.569 6.4347,15.2146 10.8791,28.1014 8.3403,24.1831 8.506,29.3462 1.0392,32.3743 -1.7389,0.7052 -54.1605,1.2822 -116.4925,1.2822 -99.3941,0 -113.8677,-0.3974 -117.6965,-3.2316 z m 134.3267,-8.3556 c -0.6558,-1.806 -1.1923,-6.0097 -1.1923,-9.3416 l 0,-6.0579 -14.7322,0 c -11.1904,0 -14.7321,0.6862 -14.7321,2.8544 0,1.5699 -0.5525,5.7736 -1.2277,9.3415 l -1.2277,6.4872 17.1522,0 c 14.8334,0 16.9909,-0.4439 15.9598,-3.2836 z m 59.1657,-25.2599 c -0.5462,-1.9981 -2.1585,-8.0701 -3.5829,-13.4934 l -2.5899,-9.8604 -71.1497,0 -71.1496,0 -3.0858,11.2179 c -1.6972,6.1698 -3.0858,12.2418 -3.0858,13.4933 0,1.6116 22.7008,2.2754 77.8183,2.2754 73.1816,0 77.7593,-0.2165 76.8254,-3.6328 z m -175.6514,-33.7263 c -6.2521,-2.7037 -6.785,-8.8954 -6.1114,-71.006 0.4558,-42.02401 1.2188,-56.08165 3.1548,-58.12502 2.0268,-2.13922 23.2316,-2.69521 102.7923,-2.69521 96.9582,0 100.3299,0.13188 103.0267,4.02958 4.1009,5.92694 4.1018,118.86915 10e-4,124.79805 -2.6875,3.8855 -6.2852,4.0444 -100.6696,4.4463 -54.3843,0.2315 -99.7985,-0.4118 -102.1938,-1.4477 z m 195.8291,-65.3976 0,-57.08711 -96.25,0 -96.25,0 0,57.08711 0,57.087 96.25,0 96.25,0 0,-57.087 z"
       id="path3389"
       inkscape:connector-curvature="0" />
  </g>
</svg>
